PathFileType	4	(X/Y/Z)	D:\TRACE\spotREDO_2-26-24\spot_Both_Motion_3_7-v60.trc
DataRate	CameraRate	NumFrames	NumMarkers	Units	OrigDataRate	OrigDataStartFrame	OrigNumFrames
100.00	100.00	      24	9	mm	100.00	4376	      7000
Frame#	Time	front left toe			Front right toe			aft left toe			aft right toe			Arm			FL body			FR body			AL Body			AR Body			
		X1	Y1	Z1	X2	Y2	Z2	X3	Y3	Z3	X4	Y4	Z4	X5	Y5	Z5	X6	Y6	Z6	X7	Y7	Z7	X8	Y8	Z8	X9	Y9	Z9	

4376	43.750	-89.44388	-28.08650	-480.24606	315.33411	-31.07228	-523.73065	44.96597	26.40134	119.98901	387.01874	26.21177	33.19490	93.73390	606.48346	-825.96881	12.96972	475.84171	-550.53937	165.82498	480.06873	-578.96777	163.80663	587.64648	313.53204	309.31754	581.23608	290.18637	
4377	43.760	-89.39457	-27.98421	-480.25549	315.59329	-30.75558	-523.63660	44.93953	26.39593	120.17321	387.36865	26.31043	33.30539	94.48426	606.52277	-825.95490	12.65187	476.12479	-551.45825	165.96700	480.08142	-579.12598	163.69901	586.98590	313.05377	309.04794	580.90332	289.71054	
4378	43.770	-89.32195	-27.75550	-480.35803	315.60641	-30.63454	-523.67365	45.12797	26.25196	120.22581	387.34604	26.29425	33.34854	94.96359	606.98090	-826.08130	12.45106	476.47849	-552.16351	165.75200	480.68268	-580.18835	163.11235	585.87256	312.05981	308.70630	580.14154	289.18069	
4379	43.780	-89.36380	-27.15506	-480.46640	315.75708	-30.46153	-523.72809	45.28661	26.13968	120.34397	387.47992	26.32429	33.43883	95.10704	606.90259	-825.77429	12.53496	476.96249	-552.75598	165.76425	481.10150	-580.93774	162.76990	585.44684	311.46402	308.25970	580.03412	288.70599	
4380	43.790	-89.24250	-26.58259	-480.35855	315.82852	-30.35957	-523.77448	45.40332	26.07085	120.51353	387.60199	26.35392	33.51021	95.53454	606.98920	-825.81824	12.99341	477.35355	-553.61688	165.80859	481.53461	-581.58368	162.26759	585.01758	310.90457	307.92792	579.36597	288.20605	
4381	43.800	-89.11901	-26.24512	-480.42508	316.39905	-30.32392	-523.56378	45.49287	26.07717	120.50728	387.57990	26.36549	33.57566	95.28808	607.24786	-825.79376	12.78644	477.92627	-554.52979	166.31201	481.63181	-581.74707	162.26331	584.66235	310.72815	307.68503	578.97559	287.85098	
4382	43.810	-88.70325	-26.24753	-480.46494	316.53171	-30.29881	-523.58441	45.52941	25.90073	120.58197	387.58914	26.40459	33.64450	95.28989	607.38068	-825.73071	12.91147	478.21402	-555.05066	166.38029	482.12299	-582.64722	161.29465	584.22449	310.08871	307.33389	577.97546	287.28638	
4383	43.820	-88.30926	-26.21161	-480.44604	316.09744	-30.04627	-523.78021	45.55784	25.76936	120.70103	387.61887	26.43229	33.70116	95.29461	607.62402	-825.53284	13.09937	478.67685	-555.94440	166.40178	482.68158	-583.54169	160.95299	583.79004	309.42624	306.65555	577.66394	286.76151	
4384	43.830	-88.15521	-26.20349	-480.64197	316.76044	-29.59775	-523.50562	45.46203	25.54981	120.63540	387.74945	26.48965	33.74073	95.47910	607.81458	-825.41016	13.47840	479.17297	-556.61871	166.60492	482.95129	-583.76294	160.77632	583.35370	308.90363	306.69473	577.13464	286.43396	
4385	43.840	-88.17477	-26.15508	-480.62158	316.81351	-29.24316	-523.50171	45.62079	25.55988	120.85168	387.73227	26.55564	33.79352	95.42783	607.92877	-825.68768	13.32360	479.69592	-557.15216	166.49515	483.49704	-584.58612	161.28854	582.81946	308.21228	306.80350	576.73224	285.93027	
4386	43.850	-88.10851	-25.98521	-480.57782	316.91324	-28.94412	-523.51929	45.79752	25.58407	120.80402	388.07007	26.58133	33.87442	94.80267	607.88959	-826.78711	13.62875	480.21432	-557.74603	166.78018	483.83170	-585.15717	161.55484	582.99658	308.17078	307.10385	576.47528	285.34656	
4387	43.860	-87.95052	-25.68152	-480.74463	317.10892	-28.82505	-523.49017	46.03163	25.51846	120.79195	388.38303	26.61061	33.96916	93.66772	607.59259	-827.92841	14.40588	480.75644	-558.38782	167.40335	484.21613	-585.55505	161.73137	582.68243	307.83096	307.32770	576.01013	285.12558	
4388	43.870	-87.75907	-25.12452	-481.05753	317.48935	-28.68043	-523.47284	46.03462	25.35322	120.81964	388.58200	26.61166	34.13520	91.35439	607.25610	-829.57782	15.10249	481.47491	-558.74225	167.89336	484.59976	-585.85852	161.80582	582.43207	307.49350	307.45779	575.76953	285.06512	
4389	43.880	-87.39109	-24.82860	-481.11224	317.96796	-28.63980	-523.42517	46.21189	25.32201	120.82463	388.72833	26.56569	34.24618	88.61226	607.30341	-831.33704	16.16643	481.88895	-559.11047	169.07686	485.09842	-586.15472	161.94067	582.32410	307.21616	307.49686	575.67053	284.94955	
4390	43.890	-86.78474	-24.66852	-481.08005	318.88010	-28.33193	-523.04437	46.45137	25.33583	120.76067	388.77939	26.57375	34.34089	85.77966	607.26990	-832.90930	17.05914	482.48886	-559.48633	170.48956	485.50140	-586.09253	162.00487	582.70764	307.24994	307.72034	575.98199	285.07968	
4391	43.900	-86.56536	-24.51672	-480.99884	319.13098	-28.32492	-523.11615	46.68733	25.40695	120.74443	388.81979	26.46149	34.33103	83.23338	607.18890	-834.18042	17.83877	482.79443	-559.56512	170.85207	485.71445	-586.30255	162.63254	582.82172	306.87369	308.38425	576.10095	284.92917	
4392	43.910	-86.60927	-24.35876	-480.90747	319.05725	-28.29585	-523.25641	46.95733	25.39296	120.77372	388.94559	26.39983	34.29284	81.13834	607.38715	-835.57574	18.15607	483.12503	-559.54700	169.83235	487.04352	-587.05267	164.29739	582.57465	306.58469	310.04953	576.10828	284.74121	
4393	43.920	-86.64152	-24.31848	-480.81586	319.29202	-27.97935	-523.13409	47.36934	25.41676	120.89420	389.14212	26.05301	34.09851	80.57675	607.41522	-836.36865	17.94856	483.45398	-559.42767	170.26022	486.45258	-586.42468	165.82797	582.97931	306.71329	311.22577	576.05084	284.09467	
4394	43.930	-86.45114	-24.39590	-480.64520	319.02643	-27.64085	-523.23071	47.68506	25.57292	121.05420	389.81909	26.13587	34.14310	80.69830	607.57068	-837.25989	17.67562	483.75751	-559.29681	170.00302	486.88831	-586.90765	167.53317	582.77295	306.32239	313.19891	575.91394	283.57767	
4395	43.940	-86.44799	-24.42455	-480.36292	318.55524	-27.31939	-523.68433	48.13728	25.62454	120.99608	390.24481	26.09520	34.17204	81.97070	607.55634	-837.74493	17.15968	484.04660	-559.01868	169.55063	487.35904	-587.29761	169.48569	583.07947	306.20285	315.05658	575.93378	282.94336	
4396	43.950	-86.67490	-24.24489	-480.21573	318.32468	-27.11514	-523.97559	48.69516	26.22025	120.98243	390.85400	25.78242	34.13647	83.51830	607.78949	-838.30542	16.60827	484.40686	-558.91235	169.17847	487.56277	-587.58215	171.63196	583.09644	306.06439	317.36319	576.01202	282.47925	
4397	43.960	-86.78735	-24.01881	-480.03992	318.44910	-26.85568	-524.10150	49.30616	26.42009	121.08559	391.40842	25.71654	34.26314	85.74836	608.05798	-838.60010	16.33434	484.81195	-558.82813	169.23767	487.83362	-587.70813	173.38025	583.47455	306.07294	318.92096	576.00476	282.00314	
4398	43.970	-86.50396	-23.92895	-479.96112	318.57123	-26.73300	-524.04364	49.51845	26.55014	121.18799	391.73138	25.57018	34.22152	88.26303	607.93170	-838.63977	16.44638	485.55954	-558.78918	169.48746	488.03894	-587.76471	174.89098	582.84595	305.70319	320.28564	575.92078	281.57343	
4399	43.980	-86.00639	-23.75313	-479.84781	318.82864	-26.60417	-523.89813	49.82756	26.43238	121.24853	391.78918	25.47108	34.20261	89.73428	608.34869	-838.73993	17.19103	485.77341	-558.72040	170.06285	488.39896	-587.94800	175.52679	583.14703	305.76077	321.20078	575.76727	281.57672	
